<?xml version="1.0" encoding="utf-8"?>
<!-- Generator: Adobe Illustrator 22.0.1, SVG Export Plug-In . SVG Version: 6.00 Build 0)  -->
<svg version="1.1" xmlns="http://www.w3.org/2000/svg" xmlns:xlink="http://www.w3.org/1999/xlink" x="0px" y="0px" width="70"
	 height="32" viewBox="0 0 837 381" style="enable-background:new 0 0 837 381;" xml:space="preserve">
<style type="text/css">
	.st0{fill:#722282;}
	.st1{fill:#FFFFFF;}
	.st2{fill:#FEFEFE;}
	.st3{fill:none;stroke:#EC008C;stroke-width:0.25;stroke-miterlimit:10;}
</style>
<g id="Layer_1">
</g>
<g id="DIE">
	<g>
		<path class="st0" d="M204.2,354.7c-90.5,0-163.9-73.9-163.9-165.1l0,0c0-91.2,73.4-165.1,163.9-165.1h428.6
			c90.5,0,163.9,73.9,163.9,165.1l0,0c0,91.2-73.4,165.1-163.9,165.1H204.2z"/>
		<g>
			<path class="st1" d="M160.7,142.6c3.9,0,7.7,1.2,10.8,3.6l7.8-10.4c-5.4-4-11.8-6.2-18.6-6.2c-17.1,0-31.1,13.9-31.1,31.1
				c0,17.1,13.9,31.1,31.1,31.1c6.6,0,12.8-2,18.1-5.8l-7.6-10.6c-3.1,2.2-6.7,3.4-10.5,3.4c-10,0-18.1-8.1-18.1-18.1
				C142.6,150.7,150.7,142.6,160.7,142.6z"/>
			<path class="st1" d="M295.1,178.8c-10,0-18.1-8.1-18.1-18.1c0-10,8.1-18.1,18.1-18.1c3.9,0,7.7,1.2,10.8,3.6l7.8-10.4
				c-5.4-4-11.8-6.2-18.6-6.2c-17.1,0-31.1,13.9-31.1,31.1c0,17.1,14,31.1,31.1,31.1c6.5,0,12.8-2,18.1-5.8l-7.6-10.6
				C302.5,177.6,298.9,178.8,295.1,178.8z"/>
			<path class="st1" d="M243.8,191.3h13c0,0,0-48.4,0-50.1s-0.5-5.3-4.5-7.4c-3.9-2.2-8.5-1.8-8.5-1.8V191.3z"/>
			<path class="st1" d="M221.2,130.6c-3-1-6.2-1.5-9.4-1.5c-17.1,0-31.1,14-31.1,31.1c0,17.1,13.9,31.1,31.1,31.1
				c3.6,0,8.9-0.1,12-0.1h10.4v-84.3c0,0-5.5-0.6-9.4,2.1c-3.9,2.7-3.6,8.8-3.6,8.8V130.6z M193.7,160.3c0-10,8.1-18.1,18.1-18.1
				c3.4,0,6.6,0.9,9.4,2.6v33.5c-3,0-6.7,0.1-9.4,0.1C201.8,178.3,193.7,170.2,193.7,160.3z"/>
		</g>
		<path class="st1" d="M562.2,160.3c-4.9-4.1-12.8-6.6-13.7-6.9l0,0c-2.4-0.7-7-2.6-9-4.3c-0.4-0.4-2.3-2.2-1.5-5.2
			c1-1.9,1.8-2.5,8.1-2.5c10.7,0,19.8,0.1,19.8,0.1l0.1-13c0,0-9.1,0-19.8,0c-12.4,0-16.6,3.5-19.9,10l-0.4,0.9
			c-2.9,8.5,0.8,15.8,5.1,19.6c4.9,4.1,12.8,6.6,13.7,6.9l0,0c2.4,0.7,7,2.6,9,4.3c0.4,0.4,2.3,2.2,1.4,5.2c-1,1.9-1.8,2.5-8.1,2.5
			c-10.7,0-19.8-0.1-19.8-0.1l-0.1,13c0,0,9.1,0,19.8,0c12.4,0,16.6-3.5,19.9-10l0.4-0.9C570.2,171.4,566.4,164,562.2,160.3z"/>
		<path class="st1" d="M671.5,129.4c-3-1-6.2-1.5-9.4-1.5c-17.2,0-31.1,14-31.1,31.1c0,17.1,14,31.1,31.1,31.1c3.6,0,8.9-0.1,12-0.1
			h10.4v-84.3c0,0-5.5-0.6-9.4,2.1c-3.9,2.7-3.6,8.8-3.6,8.8V129.4z M644,159c0-10,8.1-18.1,18.1-18.1c3.4,0,6.6,0.9,9.4,2.6v33.5
			c-2.9,0-6.7,0.1-9.4,0.1C652.1,177.1,644,169,644,159z"/>
		<path class="st1" d="M602.8,128.3c-17.1,0-31.1,13.9-31.1,31.1c0,17.1,14,31.1,31.1,31.1c3.2,0,6.6-1,9.4-3.1v3h13v-49.7
			c0,0,0.1-4.7-3.2-8.5c-3.4-3.8-9.8-3.8-9.8-3.8S605.6,128.3,602.8,128.3z M602.8,177.5c-10,0-18.1-8.1-18.1-18.1
			c0-10,8.1-18.1,18.1-18.1c2.8,0,6.5,0,9.4,0.1v31.8C609.3,176.2,606.2,177.5,602.8,177.5z"/>
		<path class="st1" d="M721.5,177.2c-10,0-18.1-8.1-18.1-18.1c0-10,8.1-18.1,18.1-18.1c3.9,0,7.7,1.2,10.8,3.6l7.8-10.4
			c-5.4-4-11.8-6.2-18.6-6.2c-17.1,0-31.1,13.9-31.1,31.1c0,17.1,14,31.1,31.1,31.1c6.6,0,12.8-2,18.1-5.8l-7.6-10.6
			C729,176,725.3,177.2,721.5,177.2z"/>
		<g>
			<path class="st2" d="M532,217.8h-1.8v7.6h-4v-20.7h6.1c4.7,0,7.6,2.2,7.6,6.4C539.9,215.6,536.8,217.8,532,217.8z M532.1,207.9
				h-1.9v6.7h1.7c2.5,0,4-1,4-3.4C536,209,534.7,207.9,532.1,207.9z"/>
			<path class="st2" d="M553.8,225.6l-5.5-8.1h-1.7v7.9h-4v-20.7h6.4c4.6,0,7.4,2.2,7.4,6.2c0,3-1.6,4.9-4.2,5.8l5.6,8.1
				L553.8,225.6z M548.8,207.9h-2.2v6.6h2c2.5,0,4-1.2,4-3.3C552.6,209.1,551.2,207.9,548.8,207.9z"/>
			<path class="st2" d="M568.8,225.8c-5.9,0-9.7-4.3-9.7-10.7c0-6.4,3.8-10.8,9.8-10.8c5.9,0,9.7,4.3,9.7,10.7
				C578.5,221.4,574.7,225.8,568.8,225.8z M568.8,207.6c-3.5,0-5.7,2.9-5.7,7.4s2.1,7.4,5.7,7.4c3.6,0,5.7-2.9,5.7-7.4
				S572.4,207.6,568.8,207.6z"/>
			<path class="st2" d="M590.3,208.2v17.2h-4v-17.2h-6.2v-3.4h16.1l0.6,3.4H590.3z"/>
			<path class="st2" d="M599.3,225.4v-20.7h12v3.4h-8.1v4.9h6.2l0.5,3.3h-6.8v5.7h8.4v3.4H599.3z"/>
			<path class="st2" d="M623.5,225.8c-6,0-9.8-4.3-9.8-10.7s3.9-10.7,9.8-10.7c2.4,0,4.3,0.6,5.8,1.5l-0.6,3.8c-1.3-1-3-1.8-5-1.8
				c-3.7,0-5.9,2.8-5.9,7.3c0,4.6,2.4,7.3,6.1,7.3c1.9,0,3.7-0.7,5.2-1.7l0.5,3.4C628,225.1,625.9,225.8,623.5,225.8z"/>
			<path class="st2" d="M642,208.2v17.2h-4v-17.2h-6.2v-3.4h16.1l0.6,3.4H642z"/>
			<path class="st2" d="M651.2,225.4v-20.7h4v20.7H651.2z"/>
			<path class="st2" d="M668.3,225.8c-5.9,0-9.7-4.3-9.7-10.7c0-6.4,3.8-10.8,9.8-10.8c5.9,0,9.7,4.3,9.7,10.7
				C678.1,221.4,674.3,225.8,668.3,225.8z M668.4,207.6c-3.5,0-5.7,2.9-5.7,7.4s2.1,7.4,5.7,7.4c3.6,0,5.7-2.9,5.7-7.4
				S671.9,207.6,668.4,207.6z"/>
			<path class="st2" d="M695.1,225.4l-9.7-14.2v14.2h-3.7v-20.7h3.8l9.3,13.6v-13.6h3.7v20.7H695.1z"/>
			<path class="st2" d="M532.9,259.5h-6.6v-20.7h6.6c7.2,0,10.9,4.2,10.9,10.3C543.8,255.3,539.9,259.5,532.9,259.5z M532.8,242.1
				h-2.6v14.2h2.5c4.3,0,7-2.2,7-7.1C539.7,244.4,537,242.1,532.8,242.1z"/>
			<path class="st2" d="M547.2,259.5v-20.7h12v3.4h-8.1v4.9h6.2l0.5,3.3h-6.8v5.7h8.4v3.4H547.2z"/>
			<path class="st2" d="M568.4,259.8c-2.5,0-4.7-0.6-6.5-1.4l0.6-3.6c1.7,1,3.9,1.8,6,1.8c1.8,0,3.1-0.9,3.1-2.5
				c0-1.5-0.7-2.2-3.7-3.5c-4-1.6-5.6-3-5.6-6.2c0-3.7,2.8-5.8,6.7-5.8c2.3,0,4,0.5,5.5,1.3l-0.6,3.6c-1.5-1-3.3-1.6-4.9-1.6
				c-2,0-2.8,1-2.8,2.2c0,1.3,0.7,2,3.5,3.2c4.3,1.7,5.8,3.2,5.8,6.4C575.4,257.7,572.4,259.8,568.4,259.8z"/>
			<path class="st2" d="M591.8,259.5h-6.6v-20.7h6.6c7.2,0,10.9,4.2,10.9,10.3C602.7,255.3,598.8,259.5,591.8,259.5z M591.7,242.1
				h-2.6v14.2h2.5c4.3,0,7-2.2,7-7.1C598.6,244.4,595.9,242.1,591.7,242.1z"/>
			<path class="st2" d="M606.1,259.5v-20.7h12v3.4H610v4.9h6.2l0.5,3.3H610v5.7h8.4v3.4H606.1z M613.1,237.1h-2.4l2.2-4.5l4.4,0.8
				L613.1,237.1z"/>
			<path class="st2" d="M627.5,251.9h-1.8v7.6h-4v-20.7h6.1c4.7,0,7.6,2.2,7.6,6.4C635.4,249.6,632.2,251.9,627.5,251.9z M627.6,242
				h-1.9v6.7h1.7c2.5,0,4-1.1,4-3.4C631.5,243.1,630.2,242,627.6,242z"/>
			<path class="st2" d="M647.3,259.9c-5.9,0-9.7-4.3-9.7-10.7c0-6.4,3.8-10.8,9.8-10.8c5.9,0,9.7,4.3,9.7,10.7
				C657,255.5,653.2,259.9,647.3,259.9z M647.3,241.7c-3.5,0-5.7,2.9-5.7,7.4c0,4.5,2.1,7.4,5.7,7.4c3.6,0,5.7-2.9,5.7-7.4
				C653,244.6,650.9,241.7,647.3,241.7z M649.7,236.8l-2.4-2l-2.4,2h-2.3l3-4.3h3.4l3,4.3H649.7z"/>
			<path class="st2" d="M668.8,242.3v17.2h-4v-17.2h-6.2v-3.5h16.1l0.6,3.5H668.8z"/>
			<path class="st2" d="M683.7,259.8c-2.5,0-4.7-0.6-6.5-1.4l0.6-3.6c1.7,1,3.9,1.8,6,1.8c1.8,0,3.1-0.9,3.1-2.5
				c0-1.5-0.7-2.2-3.7-3.5c-4-1.6-5.6-3-5.6-6.2c0-3.7,2.8-5.8,6.7-5.8c2.3,0,4,0.5,5.5,1.3l-0.6,3.6c-1.5-1-3.3-1.6-4.9-1.6
				c-2,0-2.8,1-2.8,2.2c0,1.3,0.7,2,3.5,3.2c4.3,1.7,5.8,3.2,5.8,6.4C690.6,257.7,687.7,259.8,683.7,259.8z"/>
		</g>
		<g>
			<path class="st2" d="M202.5,225.4H196v-20.7h6.6c7.2,0,10.9,4.2,10.9,10.3C213.5,221.2,209.6,225.4,202.5,225.4z M202.5,208h-2.6
				v14.2h2.5c4.3,0,7-2.2,7-7.1C209.4,210.3,206.6,208,202.5,208z"/>
			<path class="st2" d="M216.9,225.4v-20.7h12v3.4h-8.1v4.9h6.2l0.5,3.3h-6.8v5.7h8.4v3.4H216.9z"/>
			<path class="st2" d="M238.3,217.8h-1.8v7.6h-4v-20.7h6.1c4.7,0,7.6,2.2,7.6,6.4C246.2,215.6,243,217.8,238.3,217.8z M238.4,207.9
				h-1.9v6.7h1.7c2.5,0,4-1,4-3.4C242.3,209,240.9,207.9,238.4,207.9z"/>
			<path class="st2" d="M258.1,225.8c-5.9,0-9.7-4.3-9.7-10.7c0-6.4,3.8-10.8,9.8-10.8c5.9,0,9.7,4.3,9.7,10.7
				C267.8,221.4,264,225.8,258.1,225.8z M258.1,207.6c-3.5,0-5.7,2.9-5.7,7.4c0,4.5,2.1,7.4,5.7,7.4c3.6,0,5.7-2.9,5.7-7.4
				C263.8,210.6,261.6,207.6,258.1,207.6z"/>
			<path class="st2" d="M276.6,225.7c-2.5,0-4.7-0.6-6.5-1.4l0.6-3.6c1.7,1,3.9,1.8,6,1.8c1.8,0,3.1-0.9,3.1-2.5
				c0-1.5-0.7-2.2-3.7-3.5c-4-1.7-5.6-3-5.6-6.2c0-3.7,2.8-5.8,6.7-5.8c2.3,0,4,0.5,5.5,1.3l-0.6,3.6c-1.5-1-3.3-1.6-4.9-1.6
				c-2,0-2.8,1-2.8,2.2c0,1.3,0.7,2,3.5,3.1c4.3,1.7,5.8,3.2,5.8,6.4C283.6,223.6,280.6,225.7,276.6,225.7z"/>
			<path class="st2" d="M287,225.4v-20.7h4v20.7H287z"/>
			<path class="st2" d="M303.9,208.2v17.2h-4v-17.2h-6.2v-3.4h16.1l0.6,3.4H303.9z"/>
			<path class="st2" d="M142.5,249.6h-1.8v7.6h-4v-20.7h6.1c4.7,0,7.6,2.2,7.6,6.4C150.4,247.4,147.2,249.6,142.5,249.6z
				 M142.6,239.7h-1.9v6.7h1.7c2.5,0,4-1.1,4-3.4C146.5,240.8,145.2,239.7,142.6,239.7z"/>
			<path class="st2" d="M164.2,257.5l-5.5-8.1H157v7.9h-4v-20.7h6.4c4.6,0,7.4,2.2,7.4,6.2c0,3-1.6,4.9-4.2,5.8l5.6,8.1L164.2,257.5
				z M159.2,239.7H157v6.6h2c2.5,0,4-1.2,4-3.3C163,240.9,161.7,239.7,159.2,239.7z"/>
			<path class="st2" d="M179.2,257.6c-5.9,0-9.7-4.3-9.7-10.7c0-6.4,3.8-10.8,9.8-10.8c5.9,0,9.7,4.3,9.7,10.7
				C189,253.3,185.2,257.6,179.2,257.6z M179.3,239.5c-3.5,0-5.7,2.9-5.7,7.4c0,4.5,2.1,7.4,5.7,7.4c3.6,0,5.7-2.9,5.7-7.4
				C185,242.4,182.8,239.5,179.3,239.5z"/>
			<path class="st2" d="M200.7,240v17.2h-4V240h-6.2v-3.5h16.1l0.6,3.5H200.7z"/>
			<path class="st2" d="M209.8,257.3v-20.7h12v3.4h-8.1v4.9h6.2l0.5,3.3h-6.8v5.7h8.4v3.4H209.8z"/>
			<path class="st2" d="M234,257.6c-6,0-9.8-4.3-9.8-10.7c0-6.4,3.9-10.7,9.8-10.7c2.4,0,4.3,0.6,5.8,1.5l-0.6,3.8
				c-1.3-1-3-1.8-5-1.8c-3.7,0-5.9,2.8-5.9,7.3c0,4.6,2.4,7.3,6.1,7.3c1.9,0,3.7-0.7,5.2-1.7l0.5,3.4
				C238.4,256.9,236.3,257.6,234,257.6z"/>
			<path class="st2" d="M252.5,240v17.2h-4V240h-6.2v-3.5h16.1l0.6,3.5H252.5z"/>
			<path class="st2" d="M261.6,257.3v-20.7h4v20.7H261.6z"/>
			<path class="st2" d="M278.8,257.6c-5.9,0-9.7-4.3-9.7-10.7c0-6.4,3.8-10.8,9.8-10.8c5.9,0,9.7,4.3,9.7,10.7
				C288.6,253.3,284.7,257.6,278.8,257.6z M278.8,239.5c-3.5,0-5.7,2.9-5.7,7.4c0,4.5,2.1,7.4,5.7,7.4c3.6,0,5.7-2.9,5.7-7.4
				C284.5,242.4,282.4,239.5,278.8,239.5z"/>
			<path class="st2" d="M305.5,257.3l-9.7-14.2v14.2h-3.7v-20.7h3.8l9.3,13.6v-13.6h3.7v20.7H305.5z"/>
		</g>
		<g>
			<path class="st1" d="M468.4,106c-0.3-27.2-22.7-49.3-50-49.3c-27.1,0-49.5,22.1-49.9,49.4l0,29.2l2.4-1.5
				c7.2-4.6,15.1-8.1,23.3-10.4l1.1-0.3l0-16.7c0.2-12.5,10.6-22.8,23.1-22.8c12.6,0,23,10.2,23.1,23.1c0,1.1,0,5,0,9.5l0,6.9
				l1.1,0.3c8.2,2.3,16,5.8,23.3,10.4l2.4,1.5v-2.9C468.4,115,468.4,107.9,468.4,106z"/>
			<path class="st1" d="M418.5,129.6c-43.7,0-79.2,35.5-79.2,79.2c0,43.7,35.5,79.2,79.2,79.2c43.8,0,79.2-35.5,79.2-79.2
				C497.7,165.1,462.2,129.6,418.5,129.6z M445.7,230.9c-3.9,2.8-0.9,9.9-0.1,13.8c-7.7-1.1-15.3-3.1-23.1-3.2
				c-5-0.1-1.1,13.2-1.1,27.2c-1.4,0.6-4.5,0.5-5.7,0c0-12.4,3.9-27.3-1.1-27.2c-7.8,0.1-15.5,2.2-23.2,3.2
				c1.6-8.1,2.8-11.5-3.7-16.7c-6.5-5.3-13-10.5-19.5-15.8c10.3-3.6,4.5-12.6,2.3-20.8c3.4,0.7,9.2,3.3,12.6,2.6
				c4.6,1.5,4.9-4.6,5.6-7.5c3.2,3.6,6.4,7.2,9.6,10.8c1.6,1.8,6.2,4.8,5.3-0.1c-1.6-8.7-3.2-17.4-4.8-26c2.9,1.5,8.7,6.1,11.2,2.3
				c2.9-4.4,5.7-8.8,8.6-13.2c2.8,4.4,5.7,8.8,8.5,13.2c2.5,3.8,8.3-0.8,11.2-2.3c-1.6,8.7-3.2,17.4-4.8,26
				c-1.1,6.2,5.2,0.2,6.5-1.2c2.8-3.2,5.6-6.3,8.4-9.5c1.1,3.8,1,8.5,6.1,7.4c4.1-0.8,8.1-1.7,12.2-2.5c-2.2,8.2-8,17.3,2.3,20.8
				C461.1,218.4,453.4,224.7,445.7,230.9z"/>
		</g>
		<g>
			<path class="st1" d="M354.8,331.9c-2.6,0-4.4-1.8-4.4-5c0-3.3,2-5,4.5-5c1.4,0,2.4,0.4,3.1,0.9l-0.3,1.7
				c-0.9-0.7-1.8-1.1-2.9-1.1c-1.6,0-2.7,1.2-2.7,3.4c0,2.3,1.2,3.4,2.9,3.4c1,0,1.8-0.2,2.8-1.1l0.3,1.6
				C357.1,331.6,356.1,331.9,354.8,331.9z"/>
			<path class="st1" d="M366.8,331.7l-0.2-1.4c-0.7,0.9-1.7,1.6-3.1,1.6c-2.1,0-3.8-1.5-3.8-4.7c0-3.5,2-5.2,4.3-5.2
				c0.9,0,1.8,0.2,2.4,0.4v-4.9l1.8-0.3v14.4H366.8z M366.5,324.1c-0.7-0.4-1.3-0.5-2.3-0.5c-1.5,0-2.6,1.2-2.6,3.6
				c0,2.1,0.9,3.2,2.2,3.2c1.1,0,1.9-0.7,2.7-1.7V324.1z"/>
			<path class="st1" d="M372.1,320.3c-0.6,0-1.1-0.5-1.1-1.1c0-0.6,0.5-1.1,1.1-1.1c0.6,0,1.1,0.5,1.1,1.1
				C373.2,319.8,372.7,320.3,372.1,320.3z M371.2,331.7v-9.5h1.8v9.5H371.2z"/>
			<path class="st1" d="M379.9,331.9c-2.6,0-4.4-1.8-4.4-5c0-3.3,2-5,4.5-5c1.4,0,2.4,0.4,3.1,0.9l-0.3,1.7
				c-0.9-0.7-1.8-1.1-2.9-1.1c-1.6,0-2.7,1.2-2.7,3.4c0,2.3,1.2,3.4,2.9,3.4c1,0,1.8-0.2,2.8-1.1l0.3,1.6
				C382.1,331.6,381.1,331.9,379.9,331.9z"/>
			<path class="st1" d="M385.2,331.7v-2.4h2v2.4H385.2z"/>
			<path class="st1" d="M393.8,331.9c-2.6,0-4.4-1.8-4.4-5c0-3.3,2-5,4.5-5c1.4,0,2.4,0.4,3.1,0.9l-0.3,1.7
				c-0.9-0.7-1.8-1.1-2.9-1.1c-1.6,0-2.7,1.2-2.7,3.4c0,2.3,1.2,3.4,2.9,3.4c1,0,1.8-0.2,2.8-1.1l0.3,1.6
				C396.1,331.6,395.1,331.9,393.8,331.9z"/>
			<path class="st1" d="M405.1,331.7l-0.2-1.3c-0.8,0.8-1.8,1.5-3.4,1.5c-1.7,0-2.8-1-2.8-2.7c0-2.4,2-3.3,6-3.7v-0.4
				c0-1.2-0.7-1.6-1.8-1.6c-1.2,0-2.3,0.4-3.3,0.8l-0.2-1.5c1.1-0.5,2.2-0.8,3.7-0.8c2.3,0,3.4,0.9,3.4,3.1v6.7H405.1z M404.7,326.9
				c-3.5,0.3-4.3,1.3-4.3,2.3c0,0.8,0.5,1.3,1.4,1.3c1,0,2-0.5,2.8-1.3V326.9z"/>
			<path class="st1" d="M418,333.4V321l1.1-0.2v12.4L418,333.4z"/>
			<path class="st1" d="M433.4,331.9c-1.3,0-2.7-0.4-3.5-0.9l0.3-1.7c0.9,0.6,2.1,1.1,3.4,1.1c1.2,0,1.9-0.5,1.9-1.3
				c0-0.9-0.5-1.2-2.3-1.6c-2.2-0.6-3.1-1.2-3.1-2.9c0-1.5,1.3-2.6,3.4-2.6c1.2,0,2.2,0.2,3.1,0.6l-0.3,1.7
				c-0.8-0.5-1.9-0.8-2.9-0.8c-1.1,0-1.6,0.4-1.6,1.1c0,0.6,0.5,1,2,1.4c2.4,0.6,3.4,1.3,3.4,3.1
				C437.2,330.8,435.9,331.9,433.4,331.9z"/>
			<path class="st1" d="M445.1,331.7l-0.2-1.3c-0.8,0.8-1.8,1.5-3.4,1.5c-1.7,0-2.8-1-2.8-2.7c0-2.4,2-3.3,6-3.7v-0.4
				c0-1.2-0.7-1.6-1.8-1.6c-1.2,0-2.3,0.4-3.3,0.8l-0.2-1.5c1.1-0.5,2.2-0.8,3.7-0.8c2.3,0,3.4,0.9,3.4,3.1v6.7H445.1z M444.8,326.9
				c-3.5,0.3-4.3,1.3-4.3,2.3c0,0.8,0.5,1.3,1.4,1.3c1,0,2-0.5,2.8-1.3V326.9z"/>
			<path class="st1" d="M455.9,331.7l-0.2-1.4c-0.7,0.9-1.7,1.6-3.1,1.6c-2.1,0-3.8-1.5-3.8-4.7c0-3.5,2-5.2,4.3-5.2
				c0.9,0,1.8,0.2,2.4,0.4v-4.9l1.8-0.3v14.4H455.9z M455.5,324.1c-0.7-0.4-1.3-0.5-2.3-0.5c-1.5,0-2.6,1.2-2.6,3.6
				c0,2.1,0.9,3.2,2.2,3.2c1.1,0,1.9-0.7,2.7-1.7V324.1z"/>
			<path class="st1" d="M464.1,331.9c-2.6,0-4.4-1.8-4.4-5c0-3.3,2-5,4.5-5c1.4,0,2.4,0.4,3.1,0.9l-0.3,1.7
				c-0.9-0.7-1.8-1.1-2.9-1.1c-1.6,0-2.7,1.2-2.7,3.4c0,2.3,1.2,3.4,2.9,3.4c1,0,1.8-0.2,2.8-1.1l0.3,1.6
				C466.3,331.6,465.3,331.9,464.1,331.9z"/>
			<path class="st1" d="M469.4,331.7v-2.4h2v2.4H469.4z"/>
			<path class="st1" d="M478,331.9c-2.6,0-4.4-1.8-4.4-5c0-3.3,2-5,4.5-5c1.4,0,2.4,0.4,3.1,0.9l-0.3,1.7c-0.9-0.7-1.8-1.1-2.9-1.1
				c-1.6,0-2.7,1.2-2.7,3.4c0,2.3,1.2,3.4,2.9,3.4c1,0,1.8-0.2,2.8-1.1l0.3,1.6C480.3,331.6,479.3,331.9,478,331.9z"/>
			<path class="st1" d="M489.3,331.7l-0.2-1.3c-0.8,0.8-1.8,1.5-3.4,1.5c-1.7,0-2.8-1-2.8-2.7c0-2.4,2-3.3,6-3.7v-0.4
				c0-1.2-0.7-1.6-1.8-1.6c-1.2,0-2.3,0.4-3.3,0.8l-0.2-1.5c1.1-0.5,2.2-0.8,3.7-0.8c2.3,0,3.4,0.9,3.4,3.1v6.7H489.3z M489,326.9
				c-3.5,0.3-4.3,1.3-4.3,2.3c0,0.8,0.5,1.3,1.4,1.3c1,0,2-0.5,2.8-1.3V326.9z"/>
		</g>
		<g>
			<g>
				<path class="st1" d="M541.5,319.3l-0.4-6.4c-0.1-0.2-0.3-0.2-0.3,0c0,1.4-2.5,0.2-3.4,0c-7.6-1.7-12.7,4.4-12.7,9.4l0,0
					c0,6.5,4.3,10.1,9.9,10.1c4.4,0,6.7-2.8,7.4-5.9c0.1-0.4-0.3-0.3-0.4,0c-1.3,4.3-4.7,5.4-6.3,5.3c-3.6-0.1-6.9-2.9-7-9.5
					c-0.2-8.4,9.3-13.9,12.9-3.1C541.2,319.4,541.4,319.4,541.5,319.3z"/>
			</g>
			<path class="st1" d="M544.5,320.3c2-0.8,7.3-0.6,7.3,1.9v7.4c0,2,2,2.7,2.6,1.4c0.2-0.2,0.5-0.1,0.3,0.3
				c-0.4,1.4-3.9,1.7-5.2-0.3c-6.8,5-11.2-4.8-3-5c2.6-0.4,2.8-1.9,2.8-2.9c0-2.6-1.3-2.8-2.1-2.8c-0.9,0-1.5,0.3-2,1.6
				C544.5,324.5,540.6,322.2,544.5,320.3z M546.3,331.7c1.6,0.2,3.1-1.3,3.1-2.7v-3.5C542.4,328.1,544.6,331.6,546.3,331.7z"/>
			<g>
				<path class="st1" d="M558.3,320l-3.3,0.4c-0.2,0.1-0.2,0.2,0.2,0.3c0.7,0,1.2,0.5,1.2,1.6v7.8c0,0.9-1.3,1.7-1.6,1.9
					c-0.6,0.3,0.3,0.2,0.3,0.2h5.4c0.2,0,0.7,0.1,0-0.3c-0.8-0.3-1.7-1-1.7-1.8c0-0.8,0-5.8,0-5.8c0-2.4,1.6-3.8,3.2-3.8
					c1.6,0,3,0.4,3,3.8v5.8c0,0.9-1.1,1.6-1.7,1.8c-0.4,0.1-0.5,0.2-0.2,0.2h5.8c0.3,0,0.4-0.1,0.2-0.2c-1.4-0.5-1.6-1.6-1.6-1.9
					v-6.8c0-3.9-3.7-3.4-5.1-3.4c-1.6,0-3.4,1.1-3.6,1.5C558.8,320.1,558.7,320,558.3,320z"/>
			</g>
			<path class="st1" d="M590.8,331.2c-0.6,1-2,1.2-3.7,1.2c-3.3,0-6-2.5-6-6c0-3.1,1.7-6.5,6.1-6.5c4,0,3.9,2.7,3.9,0.4v-3.9
				c0-2-0.8-2.6-1.4-2.8c-0.9-0.3-2.1-0.4-0.2-0.4l3.5-0.1c-0.2,0.1,0.2,0.1,0.2,0.4v15.2c0,1.1,0.4,2.7,2.1,3.1
				c0.2,0,0.3,0.1,0.2,0.2l-3.8,0.4C591.2,332.5,591,332.3,590.8,331.2 M587.4,331.7c2.1,0,3.4-0.8,3.4-5.6c0-4.6-1.4-5.7-3.4-5.7
				c-2.1,0-3.7,2.7-3.7,5.7C583.7,329.3,585.4,331.7,587.4,331.7z"/>
			<path class="st1" d="M571.8,320.3c2-0.8,7.3-0.6,7.3,1.9v7.4c0,2,2,2.7,2.6,1.4c0.2-0.2,0.5-0.1,0.3,0.3
				c-0.4,1.4-3.9,1.7-5.2-0.3c-6.8,5-11.2-4.8-3-5c2.6-0.4,2.8-1.9,2.8-2.9c0-2.6-1.3-2.8-2.1-2.8c-0.9,0-1.5,0.3-2,1.6
				C571.7,324.5,567.8,322.1,571.8,320.3z M573.5,331.7c1.6,0.2,3.1-1.3,3.1-2.7v-3.5C569.6,328.1,571.8,331.6,573.5,331.7z"/>
			<path class="st1" d="M597.9,320.3c2-0.8,7.3-0.6,7.3,1.9v7.4c0,2,2,2.7,2.6,1.4c0.2-0.2,0.5-0.1,0.3,0.3
				c-0.4,1.4-3.9,1.7-5.2-0.3c-6.8,5-11.2-4.8-3-5c2.6-0.4,2.8-1.9,2.8-2.9c0-2.5-1.3-2.8-2.1-2.8c-0.9,0-1.5,0.3-2,1.6
				C597.9,324.5,594,322.2,597.9,320.3z M599.7,331.8c1.6,0.2,3.1-1.3,3.1-2.7v-3.5C595.8,328.1,598,331.7,599.7,331.8z"/>
			<g>
				<g>
					<rect x="594.9" y="313.2" class="st1" width="2.8" height="5.8"/>
				</g>
				<g>
					<rect x="604" y="313.2" class="st1" width="2.8" height="5.8"/>
				</g>
				<g>
					<path class="st1" d="M600.5,314.4l0.4-0.8l0.4,0.8c0.1,0.1,0.1,0.1,0.2,0l0.3-0.2l-0.2,1.1c0,0.2,0.1,0.3,0.2,0.1l0.5-0.5
						l0.1,0.3c0,0.1,0.1,0.1,0.2,0.1l0.5-0.1l-0.2,0.6l0,0c0,0.1-0.1,0.2,0,0.2l0.2,0.1l-1,0.9c-0.1,0.1-0.1,0.1,0,0.3l0.1,0.3
						l-1-0.2c-0.1,0-0.2,0-0.2,0.1l0,1.1h-0.3l0-1.1c0-0.1-0.1-0.1-0.3-0.1l-0.9,0.2l0.1-0.3c0-0.1,0.1-0.2,0-0.3l-1.1-0.9l0.2-0.1
						c0.1,0,0.1-0.1,0-0.2l-0.2-0.7l0.5,0.1c0.1,0,0.2,0,0.2-0.1l0.1-0.3l0.5,0.6c0.1,0.1,0.2,0,0.2-0.1l-0.2-1.2l0.4,0.2
						C600.4,314.4,600.5,314.4,600.5,314.4"/>
				</g>
			</g>
		</g>
		<path class="st3" d="M201.1,370.5c-98.7,0-178.7-80.6-178.7-180l0,0c0-99.4,80-180,178.7-180h434.7c98.7,0,178.7,80.6,178.7,180
			l0,0c0,99.4-80,180-178.7,180H201.1z"/>
	</g>
</g>
</svg>
