<?xml version="1.0" encoding="UTF-8" standalone="no"?>
<svg width="32px" height="32px" viewBox="0 0 32 32" version="1.1" xmlns="http://www.w3.org/2000/svg" xmlns:xlink="http://www.w3.org/1999/xlink">
    <!-- Generator: Sketch 49 (51002) - http://www.bohemiancoding.com/sketch -->
    <title>Icon / 32x32 / chevron-left</title>
    <desc>Created with Sketch.</desc>
    <defs></defs>
    <g id="Icon-/-32x32-/-chevron-left" stroke="none" stroke-width="1" fill="none" fill-rule="evenodd">
        <g id="Group-2">
            <rect id="Rectangle" x="0" y="0" width="32" height="32"></rect>
            <g id="icon-/-16px-/-swipe-right-/-blue" transform="translate(16.000000, 16.000000) scale(-1, 1) translate(-16.000000, -16.000000) translate(12.000000, 8.000000)" fill="#0079C1" fill-rule="nonzero">
                <path d="M-2.3491905,4.24077059 C-2.76851634,3.88134844 -3.39981632,3.92990998 -3.75923847,4.34923582 C-4.11866062,4.76856166 -4.07009909,5.39986165 -3.65077324,5.7592838 L3.34922676,11.7592838 C3.72371649,12.080275 4.27631977,12.080275 4.6508095,11.7592838 L11.6508095,5.7592838 C12.0701353,5.39986165 12.1186969,4.76856166 11.7592747,4.34923582 C11.3998526,3.92990998 10.7685526,3.88134844 10.3492268,4.24077059 L4.00001813,9.68294942 L-2.3491905,4.24077059 Z" id="Mask" transform="translate(4.000018, 8.000018) scale(-1, 1) rotate(90.000000) translate(-4.000018, -8.000018) "></path>
            </g>
        </g>
    </g>
</svg>