<svg xmlns="http://www.w3.org/2000/svg" width="144" height="144" viewBox="0 0 144 144">
    <defs>
        <path id="a" d="M3.607.322v3.321H.324V.322h3.283z"/>
    </defs>
    <g fill="none" fill-rule="evenodd" transform="translate(23.5 24.5)">
        <path fill="#C1E7FF" d="M95 47.5C95 73.734 73.734 95 47.5 95S0 73.734 0 47.5 21.266 0 47.5 0 95 21.266 95 47.5z"/>
        <circle cx="47.623" cy="47.226" r="39.768" fill="#FFF" stroke="#005587" stroke-width="3"/>
        <path fill="#C1E7FF" d="M16.758 70.19c6.998 9.517 18.274 15.693 30.993 15.693 21.232 0 38.444-17.212 38.444-38.445 0-14.023-7.509-26.294-18.725-33.008 11.408 10.233 15.999 26.575 10.292 41.443-7.435 19.368-29.531 28.9-49.353 21.292a39.167 39.167 0 0 1-11.65-6.975z"/>
        <path stroke="#0079C1" stroke-linecap="round" stroke-width="3" d="M95 47.5C95 73.734 73.734 95 47.5 95S0 73.734 0 47.5 21.266 0 47.5 0 95 21.266 95 47.5z"/>
        <path stroke="#73C3EB" stroke-linecap="round" stroke-width="3" d="M95 47.5C95 73.734 73.734 95 47.5 95S0 73.734 0 47.5"/>
        <path fill="#000" d="M96.5 46a1.5 1.5 0 1 1-3 0 1.5 1.5 0 0 1 3 0"/>
        <path stroke="#0079C1" stroke-linecap="round" stroke-width="3" d="M47.219 20.033v28.562"/>
        <path stroke="#001928" stroke-linecap="round" stroke-width="3" d="M47.22 49.19h19.425"/>
    </g>
</svg>
