<?xml version="1.0" encoding="UTF-8"?>
<svg width="260px" height="163px" viewBox="0 0 260 163" version="1.1" xmlns="http://www.w3.org/2000/svg" xmlns:xlink="http://www.w3.org/1999/xlink">
    <!-- Generator: Sketch 60 (88103) - https://sketch.com -->
    <title>Artboard</title>
    <desc>Created with Sketch.</desc>
    <g id="Artboard" stroke="none" stroke-width="1" fill="none" fill-rule="evenodd">
        <g id="illustration/paper_plane" transform="translate(2.000000, -19.000000)">
            <g id="Page-1" transform="translate(0.000000, 20.000000)">
                <g id="Group-15" transform="translate(0.000000, 21.086000)">
                    <path d="M101.487166,67.0734 C101.106652,67.6644 100.177282,68.6864 98.7936872,70.0094" id="Stroke-1" stroke="#0079C1" stroke-width="3" stroke-linecap="round"></path>
                    <path d="M89.9308078,77.4719 C76.3707767,87.8419 53.8866054,101.2009 37.8980607,96.7409 C12.5331424,89.6649 26.1180763,59.1509 47.3670724,79.4689 C53.1713992,85.0189 54.760193,91.2279 53.1275704,97.5609" id="Stroke-3" stroke="#0079C1" stroke-width="3" stroke-linecap="round" stroke-dasharray="7.748,11.622"></path>
                    <path d="M50.9872311,102.9582 C50.3835891,104.0952 49.6843206,105.2312 48.8983907,106.3642" id="Stroke-5" stroke="#0079C1" stroke-width="3" stroke-linecap="round"></path>
                    <path d="M48.8986895,106.3644 C48.162565,107.4244 47.3497401,108.4794 46.4641992,109.5294" id="Stroke-7" stroke="#73C3EB" stroke-width="3" stroke-linecap="round"></path>
                    <path d="M38.1788638,117.5412 C30.6861323,123.6382 20.9481712,129.2742 10.0118911,133.8872" id="Stroke-9" stroke="#73C3EB" stroke-width="3" stroke-linecap="round" stroke-dasharray="7.711,11.566"></path>
                    <path d="M4.64963735,136.0295 C3.41247004,136.4975 2.1613572,136.9525 0.89928716,137.3915" id="Stroke-11" stroke="#73C3EB" stroke-width="3" stroke-linecap="round"></path>
                    <path d="M45.7625401,13.6301 C42.4215907,14.8631 40.0578241,17.8901 40.0578241,21.4281 L40.0578241,21.6501 C40.0578241,26.2821 44.1109914,30.0381 49.10847,30.0381 L62.328828,30.0381 L75.5481899,30.0381 C80.5466646,30.0381 84.5988358,26.2821 84.5988358,21.6501 L84.5988358,21.4281 C84.5988358,17.7301 82.0169214,14.5901 78.4339175,13.4741 C78.4687813,13.1091 78.4867113,12.7401 78.4867113,12.3671 C78.4867113,6.0671 73.501186,0.9591 67.3512093,0.9591 C63.8678163,0.9591 60.7589603,2.5971 58.716937,5.1621 C57.6670381,4.7581 56.5294817,4.5371 55.3421198,4.5371 C50.2828825,4.5371 46.137077,8.5451 45.7625401,13.6301" id="Fill-13" fill="#FFFFFF"></path>
                </g>
                <g id="Group-18" transform="translate(39.844358, 25.086000)">
                    <path d="M5.91788327,9.63 C2.57693385,10.863 0.213167315,13.89 0.213167315,17.428 L0.213167315,17.65 C0.213167315,22.282 4.26633463,26.038 9.26480934,26.038 L22.4841712,26.038 L35.7045292,26.038 C40.7020078,26.038 44.754179,22.282 44.754179,17.65 L44.754179,17.428 C44.754179,16.647 44.6396265,15.891 44.425463,15.174 C42.0816187,16.826 40.2408093,19.941 37.1867393,20.949 C25.9914708,24.645 17.2944436,23.341 12.2162802,16.45 C9.06957198,12.182 11.9323891,4.327 15.2394708,0.541 C10.2987704,0.674 6.28544747,4.631 5.91788327,9.63 Z" id="Clip-17"></path>
                </g>
                <g id="Group-23" transform="translate(39.844358, 21.086000)">
                    <path d="M5.9181821,13.6301 C2.57723268,14.8631 0.213466148,17.8901 0.213466148,21.4281 L0.213466148,21.6501 C0.213466148,26.2821 4.26663346,30.0381 9.26411206,30.0381 L22.48447,30.0381 L35.7038319,30.0381 C40.7023066,30.0381 44.7544778,26.2821 44.7544778,21.6501 L44.7544778,21.4281 C44.7544778,17.7301 42.1725634,14.5901 38.5895595,13.4741 C38.6244233,13.1091 38.6423533,12.7401 38.6423533,12.3671 C38.6423533,6.0671 33.656828,0.9591 27.5068514,0.9591 C24.0234584,0.9591 20.9146023,2.5971 18.872579,5.1621 C17.8226802,4.7581 16.6851237,4.5371 15.4977619,4.5371 C10.4385245,4.5371 6.29271907,8.5451 5.9181821,13.6301 Z" id="Stroke-19" stroke="#70C0EB" stroke-width="3" stroke-linecap="round"></path>
                    <path d="M211.094213,54.5402 C214.003847,55.6132 216.05882,58.2482 216.05882,61.3272 L216.05882,61.5192 C216.05882,65.5532 212.531598,68.8222 208.181591,68.8222 L196.673544,68.8222 L185.167489,68.8222 C180.816486,68.8222 177.288268,65.5532 177.288268,61.5192 L177.288268,61.3272 C177.288268,58.1082 179.535489,55.3752 182.655303,54.4032 C182.625419,54.0862 182.610478,53.7652 182.610478,53.4402 C182.610478,47.9562 186.950525,43.5102 192.303614,43.5102 C195.334774,43.5102 198.041202,44.9362 199.819256,47.1692 C200.732688,46.8172 201.72282,46.6252 202.755785,46.6252 C207.160579,46.6252 210.768486,50.1132 211.094213,54.5402" id="Fill-21" fill="#FFFFFF"></path>
                </g>
                <g id="Group-26" transform="translate(216.155642, 67.086000)">
                    <path d="M29.3015409,14.477 C24.8808093,20.475 17.3103813,21.609 7.56544747,18.393 C4.90683268,17.514 3.30409339,14.803 1.26505837,13.365 C1.07778988,13.99 0.978178988,14.648 0.978178988,15.327 L0.978178988,15.52 C0.978178988,19.553 4.50440467,22.823 8.85640467,22.823 L20.3624591,22.823 L31.8705058,22.823 C36.2205136,22.823 39.7477354,19.553 39.7477354,15.52 L39.7477354,15.327 C39.7477354,12.249 37.6927626,9.613 34.7831284,8.54 C34.4623813,4.189 30.9710195,0.745 26.6678288,0.628 C29.5475798,3.924 32.0398444,10.761 29.3015409,14.477 Z" id="Clip-25"></path>
                </g>
                <g id="Group-31" transform="translate(168.342412, 61.086000)">
                    <path d="M82.5961588,14.5402 C85.505793,15.6132 87.5607658,18.2482 87.5607658,21.3272 L87.5607658,21.5192 C87.5607658,25.5532 84.033544,28.8222 79.6835362,28.8222 L68.1754895,28.8222 L56.669435,28.8222 C52.3184311,28.8222 48.7902132,25.5532 48.7902132,21.5192 L48.7902132,21.3272 C48.7902132,18.1082 51.037435,15.3752 54.1572482,14.4032 C54.127365,14.0862 54.1124233,13.7652 54.1124233,13.4402 C54.1124233,7.9562 58.45247,3.5102 63.8055595,3.5102 C66.8367191,3.5102 69.5431471,4.9362 71.3212016,7.1692 C72.2346335,6.8172 73.2247658,6.6252 74.2577307,6.6252 C78.6625245,6.6252 82.2704311,10.1132 82.5961588,14.5402 Z" id="Stroke-27" stroke="#70C0EB" stroke-width="3" stroke-linecap="round"></path>
                    <path d="M7.6681463,16.8254 C3.32909572,18.4274 0.260084047,22.3574 0.260084047,26.9524 L0.260084047,27.2394 C0.260084047,33.2564 5.52352374,38.1344 12.0141696,38.1344 L29.1821074,38.1344 L46.3500451,38.1344 C52.8416872,38.1344 58.1041307,33.2564 58.1041307,27.2394 L58.1041307,26.9524 C58.1041307,22.1484 54.751228,18.0714 50.097407,16.6214 C50.1422319,16.1484 50.1641463,15.6694 50.1641463,15.1844 C50.1641463,7.0024 43.6904342,0.3694 35.7046288,0.3694 C31.1803019,0.3694 27.1430724,2.4974 24.4914304,5.8284 C23.1277572,5.3044 21.6505276,5.0174 20.108551,5.0174 C13.5392125,5.0174 8.15424747,10.2214 7.6681463,16.8254" id="Fill-29" fill="#FFFFFF"></path>
                </g>
                <g id="Group-34" transform="translate(168.342412, 66.086000)">
                    <path d="M7.6690428,11.826 C3.32899611,13.427 0.260980545,17.358 0.260980545,21.952 L0.260980545,22.24 C0.260980545,28.256 5.52342412,33.134 12.0150661,33.134 L29.1820078,33.134 L46.3499455,33.134 C52.8415875,33.134 58.1040311,28.256 58.1040311,22.24 L58.1040311,21.952 C58.1040311,20.938 57.9536187,19.956 57.6747082,19.025 C54.6325914,21.17 52.2399377,25.216 48.2754241,26.524 C33.7362179,31.323 22.4413385,29.631 15.8470973,20.683 C11.7620545,15.139 15.4795331,4.939 19.7747549,0.022 C13.3568249,0.195 8.14518288,5.333 7.6690428,11.826 Z" id="Clip-33"></path>
                </g>
                <g id="Group-83" transform="translate(63.750973, 0.086000)">
                    <path d="M112.259586,77.8254 C107.920535,79.4274 104.851524,83.3574 104.851524,87.9524 L104.851524,88.2394 C104.851524,94.2564 110.114963,99.1344 116.605609,99.1344 L133.773547,99.1344 L150.941485,99.1344 C157.433127,99.1344 162.69557,94.2564 162.69557,88.2394 L162.69557,87.9524 C162.69557,83.1484 159.342668,79.0714 154.688847,77.6214 C154.733672,77.1484 154.755586,76.6694 154.755586,76.1844 C154.755586,68.0024 148.281874,61.3694 140.296068,61.3694 C135.771742,61.3694 131.734512,63.4974 129.08287,66.8284 C127.719197,66.3044 126.241967,66.0174 124.699991,66.0174 C118.130652,66.0174 112.745687,71.2214 112.259586,77.8254 Z" id="Stroke-35" stroke="#70C0EB" stroke-width="3" stroke-linecap="round"></path>
                    <polygon id="Fill-37" fill="#C1E7FF" points="49.1720218 64.7082 61.0287066 72.5092 45.0909634 82.5092"></polygon>
                    <path d="M3.81210895,42.507 C18.8443891,36.739 116.671253,0.942 116.671253,0.942 C116.671253,0.942 120.604887,0.272 121.664747,3.306 C122.725603,6.339 93.0594864,82.552 91.2057276,85.6 C89.3539611,88.648 84.690179,88.458 82.2228171,86.728 C78.4923891,84.112 55.7482335,67.246 48.6589261,63.669 L115.782724,6.155 L34.7651984,58.199 C34.7651984,58.199 12.9892607,52.95 5.15785214,51.658 C-1.31785214,50.59 -1.54297276,44.562 3.81210895,42.507" id="Fill-39" fill="#FFFFFF"></path>
                    <path d="M3.81210895,42.507 C18.8443891,36.739 116.671253,0.942 116.671253,0.942 C116.671253,0.942 120.604887,0.272 121.664747,3.306 C122.725603,6.339 93.0594864,82.552 91.2057276,85.6 C89.3539611,88.648 84.690179,88.458 82.2228171,86.728 C78.4923891,84.112 55.7482335,67.246 48.6589261,63.669 L115.782724,6.155 L34.7651984,58.199 C34.7651984,58.199 12.9892607,52.95 5.15785214,51.658 C-1.31785214,50.59 -1.54297276,44.562 3.81210895,42.507 Z" id="Stroke-41" stroke="#0079C1" stroke-width="3" stroke-linecap="round" stroke-linejoin="round"></path>
                    <g id="Group-46" transform="translate(90.645914, 47.000000)">
                        <path d="M15.8705058,0.1076 C8.67461479,18.9996 1.44585214,37.1446 0.560311284,38.5996" id="Fill-43" fill="#FFFFFF"></path>
                        <path d="M15.8705058,0.1076 C8.67461479,18.9996 1.44585214,37.1446 0.560311284,38.5996" id="Stroke-45" stroke="#005587" stroke-width="3" stroke-linecap="round" stroke-linejoin="round"></path>
                    </g>
                    <g id="Group-50" transform="translate(47.813230, 63.000000)">
                        <path d="M34.4093883,23.7277 C30.6789603,21.1127 7.93480467,4.2467 0.846493385,0.6687" id="Fill-47" fill="#FFFFFF"></path>
                        <path d="M34.4093883,23.7277 C30.6789603,21.1127 7.93480467,4.2467 0.846493385,0.6687" id="Stroke-49" stroke="#005587" stroke-width="3" stroke-linecap="round" stroke-linejoin="round"></path>
                    </g>
                    <g id="Group-54" transform="translate(81.680934, 85.000000)">
                        <path d="M0.541684047,1.7277 C3.01004202,3.4577 7.67282802,3.6477 9.52559066,0.5997" id="Fill-51" fill="#FFFFFF"></path>
                        <path d="M0.541684047,1.7277 C3.01004202,3.4577 7.67282802,3.6477 9.52559066,0.5997" id="Stroke-53" stroke="#005587" stroke-width="3" stroke-linecap="round" stroke-linejoin="round"></path>
                    </g>
                    <g id="Group-58" transform="translate(4.980545, 51.000000)">
                        <path d="M29.7848529,7.1994 C29.7848529,7.1994 8.00891518,1.9504 0.176510506,0.6584" id="Fill-55" fill="#FFFFFF"></path>
                        <path d="M29.7848529,7.1994 C29.7848529,7.1994 8.00891518,1.9504 0.176510506,0.6584" id="Stroke-57" stroke="#0079C1" stroke-width="3" stroke-linecap="round" stroke-linejoin="round"></path>
                    </g>
                    <g id="Group-62" transform="translate(0.000000, 42.000000)">
                        <path d="M5.1574537,9.6584 C-1.31825058,8.5904 -1.54337121,2.5614 3.81171051,0.5074" id="Fill-59" fill="#FFFFFF"></path>
                        <path d="M5.1574537,9.6584 C-1.31825058,8.5904 -1.54337121,2.5614 3.81171051,0.5074" id="Stroke-61" stroke="#091B28" stroke-width="3" stroke-linecap="round" stroke-linejoin="round"></path>
                    </g>
                    <path d="M115.782923,6.1555 L34.7653977,58.1995 C34.7653977,58.1995 41.35167,78.2795 44.2085105,81.0875 C47.0663471,83.8955 47.1191409,67.9095 48.6591253,63.6695 L115.782923,6.1555 Z" id="Fill-63" fill="#C1E7FF"></path>
                    <path d="M115.782923,6.1555 L34.7653977,58.1995 C34.7653977,58.1995 41.35167,78.2795 44.2085105,81.0875 C47.0663471,83.8955 47.1191409,67.9095 48.6591253,63.6695 L115.782923,6.1555 Z" id="Stroke-65" stroke="#0079C1" stroke-width="3" stroke-linecap="round" stroke-linejoin="round"></path>
                    <g id="Group-70" transform="translate(47.813230, 6.000000)">
                        <line x1="0.846194553" y1="57.6691" x2="67.9699922" y2="0.1551" id="Fill-67" fill="#C1E7FF"></line>
                        <line x1="0.846194553" y1="57.6691" x2="67.9699922" y2="0.1551" id="Stroke-69" stroke="#0079C1" stroke-width="3" stroke-linecap="round" stroke-linejoin="round"></line>
                    </g>
                    <g id="Group-74" transform="translate(33.867704, 6.000000)">
                        <line x1="81.9152187" y1="0.1555" x2="0.897693385" y2="52.1995" id="Fill-71" fill="#C1E7FF"></line>
                        <line x1="81.9152187" y1="0.1555" x2="0.897693385" y2="52.1995" id="Stroke-73" stroke="#005587" stroke-width="3" stroke-linecap="round" stroke-linejoin="round"></line>
                    </g>
                    <g id="Group-78" transform="translate(43.828794, 63.000000)">
                        <path d="M0.380214786,18.0871 C3.23705525,20.8961 3.29084514,4.9091 4.83082957,0.6691" id="Fill-75" fill="#C1E7FF"></path>
                        <path d="M0.380214786,18.0871 C3.23705525,20.8961 3.29084514,4.9091 4.83082957,0.6691" id="Stroke-77" stroke="#0079C1" stroke-width="3" stroke-linecap="round" stroke-linejoin="round"></path>
                    </g>
                    <g id="Group-82" transform="translate(33.867704, 58.000000)">
                        <path d="M0.897693385,0.1994 C0.897693385,0.1994 7.48396576,20.2794 10.3408062,23.0874" id="Fill-79" fill="#C1E7FF"></path>
                        <path d="M0.897693385,0.1994 C0.897693385,0.1994 7.48396576,20.2794 10.3408062,23.0874" id="Stroke-81" stroke="#005587" stroke-width="3" stroke-linecap="round" stroke-linejoin="round"></path>
                    </g>
                </g>
            </g>
        </g>
    </g>
</svg>