<svg xmlns="http://www.w3.org/2000/svg" xmlns:xlink="http://www.w3.org/1999/xlink" width="501" height="501" viewBox="0 0 501 501">
    <defs>
        <path id="a" d="M27.537 1.464C11.492 4.293-.66 11.436.396 17.419c1.054 5.983 14.916 8.54 30.961 5.711 16.046-2.829 28.196-9.973 27.142-15.956C57.736 2.846 50.27.311 40.124.311c-3.879 0-8.149.37-12.587 1.153z"/>
        <path id="c" d="M.948 180.682c0 99.428 80.977 180.032 180.868 180.032 99.89 0 180.868-80.604 180.868-180.032C362.684 81.253 281.706.648 181.816.648 81.925.648.948 81.253.948 180.682z"/>
        <path id="e" d="M52.614 12.335c-5.602.135-11.219.032-16.823.032H.021v35.629h51.058c8.069 0 15.837.38 23.634-2.117 7.118-2.28 13.789-6.161 19.779-10.366 9.328-6.545 17.498-14.855 23.688-24.409L84.778.799C74.871 11.353 64.831 12.04 52.614 12.335z"/>
        <path id="g" d="M116.672 6.114a91.793 91.793 0 0 1-2.91 2.846 82.915 82.915 0 0 1-2.992 2.731 103.528 103.528 0 0 1-12.812 9.642 109.47 109.47 0 0 1-6.864 4.068 79.046 79.046 0 0 1-7.058 3.434 54.191 54.191 0 0 1-7.221 2.517c-2.37.651-4.84.989-7.371 1.209-2.538.208-5.147.25-7.828.219l-8.208-.057c-5.486.006-10.969.013-16.455.11a873.25 873.25 0 0 0-30.084.938c.081 1.052.15 2.105.206 3.163l-3.031-3.019c.942-.049 1.883-.097 2.825-.144-.126-1.651-.28-3.3-.449-4.956-.302-2.72-.677-5.471-1.074-8.399-.39-2.92-.755-6.016-.98-9.239a142.574 142.574 0 0 1-.322-9.872 97.85 97.85 0 0 1-.323 7.943c-.225 2.714-.59 5.556-.98 8.575-.396 3.01-.773 6.197-1.074 9.415a237.87 237.87 0 0 0-.656 9.696l-.126 2.851 3.159.166c10.969.581 21.939.923 32.909 1.084 5.486.096 10.969.104 16.455.109l8.248-.022c2.801-.048 5.681-.17 8.604-.495 2.92-.348 5.882-.929 8.766-1.859 2.863-.911 5.513-2.099 8.104-3.402 5.157-2.646 9.827-5.885 14.201-9.421 4.381-3.572 8.393-7.556 11.925-11.893a89.996 89.996 0 0 0 2.551-3.32 88.822 88.822 0 0 0 2.344-3.454 62.929 62.929 0 0 0 4.051-7.237 129.48 129.48 0 0 1-5.53 6.073z"/>
        <path id="i" d="M84.162.557v59.839c0 17.937-14.608 32.477-32.628 32.477-10.031 0-19.003-4.504-24.989-11.594L.44 98.239c11.636 16.443 30.856 27.184 52.596 27.184 35.507 0 64.29-28.65 64.29-63.993v-9.131.902V.557H84.162z"/>
        <path id="k" d="M116.324 13.24c.32-4.386.668-8.773 1.108-13.16.441 4.387.788 8.774 1.109 13.16.345 4.388.61 8.775.871 13.161.253 4.387.493 8.774.687 13.161.198 4.087.354 8.174.511 12.26l.035.901h-6.427l.035-.901c.159-4.086.314-8.173.513-12.26.194-4.387.434-8.774.687-13.161.261-4.386.526-8.773.871-13.161zm4.356 38.582l.173 5.342.085 2.671c.012.451.036.879.038 1.347l.004 1.409c-.002 3.756-.278 7.531-.939 11.251a69.45 69.45 0 0 1-2.893 10.961c-1.268 3.573-2.913 7.009-4.783 10.31-3.778 6.582-8.674 12.553-14.489 17.463-2.897 2.464-5.981 4.715-9.258 6.653a68.244 68.244 0 0 1-10.275 4.933c-14.22 5.438-30.256 5.689-44.389.776-.441-.153-.89-.283-1.324-.452l-1.302-.519c-.862-.355-1.739-.67-2.584-1.057-1.684-.797-3.374-1.567-4.977-2.504-1.642-.858-3.186-1.885-4.734-2.884-.768-.509-1.497-1.079-2.244-1.614l-1.113-.814c-.363-.279-.711-.582-1.064-.875C8.905 109.598 4.146 103.95.547 97.762c9.35 10.868 21.705 18.545 35.009 21.829l2.495.586 2.523.448 1.258.219 1.272.145 2.535.283 2.545.145c.424.021.847.062 1.271.067l1.274-.003 2.541-.013 2.537-.148c6.743-.505 13.38-2.023 19.559-4.62a63.176 63.176 0 0 0 8.938-4.545c2.827-1.783 5.54-3.745 8.061-5.935a65.08 65.08 0 0 0 7.025-7.113c2.143-2.557 4.049-5.303 5.771-8.158 3.439-5.716 5.889-12.018 7.312-18.557.745-3.267 1.164-6.611 1.332-9.972l.073-1.261c.025-.422.031-.884.049-1.324l.084-2.671.172-5.342.035.901h6.427l.035-.901zm-.07 0h.07-.07zm-6.427 0h.07-.07z"/>
        <path id="m" d="M.16.082v77.354-.709c0 35.342 28.783 63.992 64.289 63.992 35.507 0 64.29-28.65 64.29-63.992v-7.89l-28.605-.217.099 7.605c0 18.392-14.978 33.3-33.454 33.3-18.477 0-33.455-14.908-33.455-33.3V.082H.16z"/>
        <path id="o" d="M42.273.917a163.5 163.5 0 0 0-20.682 1.294c-3.488.462-6.975 1.031-10.463 1.79-1.743.39-3.487.8-5.232 1.29a56.943 56.943 0 0 0-5.23 1.692l-.36.135v.572l.36.007 10.462.175 10.463.063 20.925.118 20.924-.12 10.463-.063 10.463-.173.359-.007v-.572l-.359-.135a57.384 57.384 0 0 0-5.231-1.682 98.897 98.897 0 0 0-5.232-1.285c-3.487-.757-6.974-1.324-10.463-1.788C56.466 1.338 49.49.924 42.516.917h-.243z"/>
        <path id="q" d="M2.795 19.682C3.203 13.235 3.616 6.79 4.178.343c.564 6.447.976 12.892 1.384 19.339.342 6.446.735 12.892 1.006 19.338.29 6.447.538 12.893.749 19.339l.291 9.669c.088 2.987.168 5.974.229 8.959l.014.71H.506l.015-.71c.061-2.985.141-5.972.229-8.959l.291-9.669c.211-6.446.459-12.892.749-19.339.271-6.446.664-12.892 1.005-19.338zm128.909 62.403c.58-4.251.688-8.64 1.054-12.987.169 2.177.308 4.354.45 6.531.075 1.084.141 2.181.183 3.284.027 1.1.029 2.203.003 3.307-.113 4.413-.653 8.852-1.736 13.184a64.842 64.842 0 0 1-4.532 12.644c-1.979 4.046-4.359 7.926-7.168 11.495a65.22 65.22 0 0 1-9.471 9.827 64.84 64.84 0 0 1-11.372 7.707c-8.108 4.356-17.201 6.98-26.45 7.656-4.623.333-9.285.223-13.895-.387a68.4 68.4 0 0 1-13.556-3.247c-4.396-1.54-8.615-3.572-12.591-5.991a66.253 66.253 0 0 1-11.081-8.44c-3.385-3.185-6.456-6.704-9.108-10.516a68.12 68.12 0 0 1-6.724-12.153C2.096 95.466.302 86.185.493 76.987l.013.71h7.345l.014-.71c.171 8.218 1.962 16.351 5.319 23.791a59.852 59.852 0 0 0 6.084 10.59 60.693 60.693 0 0 0 8.058 9.179 63.4 63.4 0 0 0 9.719 7.406c3.471 2.149 7.171 3.922 11.004 5.332 7.668 2.826 15.925 4.06 24.143 3.693 4.104-.2 8.198-.769 12.195-1.769a63.202 63.202 0 0 0 11.645-4.166 63.687 63.687 0 0 0 10.642-6.423 64.392 64.392 0 0 0 9.23-8.432c2.79-3.119 5.305-6.51 7.44-10.147a62.157 62.157 0 0 0 5.356-11.498c1.374-4.024 2.421-8.193 3.004-12.458zM7.837 76.987h.028-.028zm-7.344 0h.028-.028z"/>
        <path id="s" d="M.918 4.979a21.613 21.613 0 0 0 .117 4.869c.427 3.237 1.599 6.391 3.278 9.196a26.625 26.625 0 0 0 6.349 7.223c2.478 1.938 5.441 3.709 8.872 4.116-.687-1.589-1.405-2.945-2.074-4.295a102.814 102.814 0 0 0-2.081-3.9c-.741-1.299-1.487-2.479-2.212-3.66-.714-1.184-1.459-2.327-2.149-3.49A320.544 320.544 0 0 1 6.85 7.966C5.383 5.529 4.031 2.923 2.029.166 1.398 1.75 1.063 3.359.918 4.979z"/>
        <path id="u" d="M1.076 6.85a278.853 278.853 0 0 0-.368 6.768C.62 15.873.522 18.13.484 20.385a263.37 263.37 0 0 0-.112 6.768l-.003 1.218 1.234.048 4.078.158 4.08.094c2.719.084 5.44.062 8.162.086 2.722-.024 5.444-.049 8.169-.14 2.725-.092 5.45-.2 8.179-.436-2.709-.407-5.421-.687-8.135-.951-2.713-.261-5.428-.458-8.144-.653-2.717-.147-5.432-.34-8.151-.427l-4.078-.163-2.853-.069c.004.412.005.823.006 1.235l-1.232-1.264 1.226.029a309.584 309.584 0 0 0-.105-5.533c-.039-2.255-.136-4.512-.225-6.767a284.017 284.017 0 0 0-.368-6.768A165.735 165.735 0 0 0 1.644.083a163.974 163.974 0 0 0-.568 6.767z"/>
        <path id="w" d="M4.901.814c-.983 0-1.968.35-2.745 1.06l-.513.47a4.039 4.039 0 0 0-.241 5.71l11.196 12.125 9.27-2.931-.722-.781L7.892 2.114a4.055 4.055 0 0 0-2.988-1.3h-.003z"/>
        <path id="y" d="M.855.985c0 .537.437.973.978.973a.976.976 0 0 0 .979-.973.976.976 0 0 0-.979-.973.975.975 0 0 0-.978.973z"/>
        <path id="A" d="M.172 1.423c0 .537.437.974.978.974a.975.975 0 0 0 0-1.948.975.975 0 0 0-.978.974z"/>
        <path id="C" d="M.955 5.847l16.728 2.662s6.447.897 10.963 1.295c4.513.397 8.712.652 9.035-3.236C38.003 2.679 16.078.585 13.499.285a1.921 1.921 0 0 0-.206-.01C10.429.275.955 5.847.955 5.847z"/>
        <path id="E" d="M13.423 1.954C9.003 2.658 4.615 3.617.12 3.015v7.767c7.577-.339 14.774-1.372 22.114-3.306 2.683-.708 5.595-1.306 5.594-4.672 0-2.125-1.744-2.796-4.043-2.796-3.627 0-8.637 1.672-10.362 1.946z"/>
        <path id="G" d="M1.704.642l-.53.916a2.771 2.771 0 0 0 1.018 3.784l.029.017a2.8 2.8 0 0 0 3.803-1.015l1.333-2.299c.257-.442.377-.925.371-1.404L1.704.642z"/>
        <path id="I" d="M2.653.919A2.205 2.205 0 0 0 .448 3.113V4.3c0 1.207.991 2.195 2.205 2.195h3.826A2.206 2.206 0 0 0 8.683 4.3V3.113A2.205 2.205 0 0 0 6.479.919H2.653z"/>
        <path id="K" d="M5.625.767l-3.757.727A2.2 2.2 0 0 0 .126 4.066l.227 1.167a2.21 2.21 0 0 0 2.584 1.734l3.757-.727a2.201 2.201 0 0 0 1.743-2.572l-.228-1.167A2.21 2.21 0 0 0 5.625.767z"/>
        <path id="M" d="M5.91.384l-3.758.728A2.199 2.199 0 0 0 .41 3.684l.227 1.165a2.21 2.21 0 0 0 2.584 1.735l3.758-.727a2.2 2.2 0 0 0 1.742-2.572l-.227-1.166A2.211 2.211 0 0 0 5.91.384z"/>
        <path id="O" d="M5.537.257l-5.49 10.11v28.826l13.916-5.936c.302-1.646.525-3.73.579-6.36.223-10.519-6.947-13.934-6.947-13.934l1.614-5.875 2.219.136c8.774 0 6.736-6.967 6.736-6.967H5.537z"/>
        <path id="Q" d="M.5 500h500V0H.5z"/>
        <path id="S" d="M2.657.65A2.205 2.205 0 0 0 .453 2.844v3.809c0 1.207.991 2.194 2.204 2.194H3.85a2.205 2.205 0 0 0 2.203-2.194V2.844A2.205 2.205 0 0 0 3.85.65H2.657z"/>
        <path id="U" d="M.948 2.059l-.731 3.74a2.2 2.2 0 0 0 1.742 2.572l1.172.227a2.21 2.21 0 0 0 2.584-1.734l.731-3.741A2.202 2.202 0 0 0 4.703.551L3.531.325A2.21 2.21 0 0 0 .948 2.059z"/>
        <path id="W" d="M1.959 3.27l1.172.226a2.208 2.208 0 0 0 2.583-1.734L.217.697A2.2 2.2 0 0 0 1.959 3.27z"/>
        <path id="Y" d="M1.605 2.347l-.731 3.74a2.198 2.198 0 0 0 1.742 2.571l1.172.227a2.209 2.209 0 0 0 2.584-1.733l.731-3.741A2.202 2.202 0 0 0 5.36.839L4.189.612a2.21 2.21 0 0 0-2.584 1.735z"/>
        <path id="aa" d="M1.605 1.86L.874 5.599l6.229-2.675A2.202 2.202 0 0 0 5.36.352L4.189.126A2.208 2.208 0 0 0 1.605 1.86z"/>
        <path id="ac" d="M13.361.139L.771 5.967v13.408s9.224 2.164 9.224-7.152l-.148-2.357 6.296-1.711s3.661 7.611 14.934 7.375c11.273-.235 13.176-3.307 13.176-3.307V.139H13.361z"/>
        <path id="ae" d="M.5 500h500V0H.5z"/>
    </defs>
    <g fill="none" fill-rule="evenodd">
        <path stroke="#005489" stroke-linecap="round" stroke-width="3" d="M489.978 292.782c-.65 4.438-6.454 5.237-9.82 6.312-3.337 1.063-6.6 1.896-10.022 2.67a83.188 83.188 0 0 1-17.747 2.064 84.576 84.576 0 0 1-9.156-.433c-2.646-.268-5.983-.289-8.399-1.49-2.404-1.196-3.606-1.944-3.606-1.944l58.75-7.179z"/>
        <g transform="translate(429 278)">
            <mask id="b" fill="#fff">
                <use xlink:href="#a"/>
            </mask>
            <path fill="#FFF" d="M-7.308 2.53L60.644-9.45l5.557 31.512-67.95 11.982z" mask="url(#b)"/>
        </g>
        <path stroke="#001929" stroke-linecap="round" stroke-width="3" d="M463.081 296.788c2.781 0 5.646-.735 8.364-1.264 4.987-.967 9.92-2.206 14.87-3.339 1.316-.3 2.701-.499 3.963-1 1.691-.67 3.361-2.44 3.437-4.328.071-1.774-1.518-2.82-3.173-2.703"/>
        <g transform="translate(5 73)">
            <mask id="d" fill="#fff">
                <use xlink:href="#c"/>
            </mask>
            <path fill="#D7EFFE" d="M-4.052 365.714h371.735V-4.351H-4.052z" mask="url(#d)"/>
            <g mask="url(#d)">
                <path fill="#FFF" d="M58.273 300.576l12.502 4.724a34.242 34.242 0 0 0 12.093 2.207h272.487a33.59 33.59 0 0 0 12.09-2.25l12.126-4.68"/>
                <path stroke="#0079C1" stroke-linecap="round" stroke-linejoin="round" stroke-width="3" d="M58.273 300.576l12.502 4.724a34.242 34.242 0 0 0 12.093 2.207h272.487a33.59 33.59 0 0 0 12.09-2.25l12.126-4.68"/>
            </g>
            <path fill="#FFF" d="M343.268 292.83H91.298V139.874a8.498 8.498 0 0 1 8.498-8.498h235.172a8.3 8.3 0 0 1 8.3 8.3V292.83z" mask="url(#d)"/>
            <path stroke="#0079C1" stroke-linecap="round" stroke-linejoin="round" stroke-width="3" d="M343.268 292.83H91.298V139.874a8.498 8.498 0 0 1 8.498-8.498h235.172a8.3 8.3 0 0 1 8.3 8.3V292.83z" mask="url(#d)"/>
            <path stroke="#081B28" stroke-linecap="round" stroke-linejoin="round" stroke-width="3" d="M91.298 252.219v-110.03c0-6.043 4.9-10.943 10.944-10.943h61.402" mask="url(#d)"/>
            <path fill="#FFF" d="M58.273 300.576h321.298v-7.746H58.273z" mask="url(#d)"/>
            <path stroke="#005587" stroke-linecap="round" stroke-linejoin="round" stroke-width="3" d="M58.273 300.576h321.298v-7.746H58.273z" mask="url(#d)"/>
            <path stroke="#73C3EC" stroke-linecap="round" stroke-linejoin="round" stroke-width="3" d="M100.268 281.617h234.026V146.258H100.268z" mask="url(#d)"/>
            <path stroke="#005587" stroke-linecap="round" stroke-width="3" d="M220.644 139.072a1.989 1.989 0 1 1-3.977-.001 1.989 1.989 0 0 1 3.977 0z" mask="url(#d)"/>
            <path stroke="#0079C1" stroke-linecap="round" stroke-linejoin="round" stroke-width="3" d="M182.83 292.83v.475a3.398 3.398 0 0 0 3.397 3.398h64.29a3.195 3.195 0 0 0 3.195-3.194v-.679" mask="url(#d)"/>
            <path stroke="#081B28" stroke-linecap="round" stroke-linejoin="round" stroke-width="3" d="M268.836 300.576H379.57" mask="url(#d)"/>
            <path stroke="#73C3EC" stroke-linecap="round" stroke-linejoin="round" stroke-width="3" d="M114.293 292.83h-56.02v7.746" mask="url(#d)"/>
            <g mask="url(#d)">
                <path fill="#FFF" d="M334.294 175.507v106.11H232.776"/>
                <path stroke="#0079C1" stroke-linecap="round" stroke-linejoin="round" stroke-width="3" d="M334.294 175.507v106.11H232.776"/>
            </g>
        </g>
        <path fill="#FFF" d="M3.022 339.187h62.167v-32.354H3.022z"/>
        <path stroke="#0077C4" stroke-linecap="round" stroke-linejoin="round" stroke-width="3" d="M3.023 339.188H65.19v-32.354H3.023z"/>
        <path fill="#FFF" d="M350.329 269.376l-21.924 35.781h87.973v-35.781z"/>
        <g transform="translate(97 283)">
            <mask id="f" fill="#fff">
                <use xlink:href="#e"/>
            </mask>
            <path fill="#D9F1FF" d="M-4.979 53.017H123.18V-4.2H-4.979z" mask="url(#f)"/>
        </g>
        <path stroke="#70C2ED" stroke-linecap="round" stroke-linejoin="round" stroke-width="3" d="M214.855 293.719c-6.19 9.556-14.361 17.864-23.688 24.41-5.99 4.204-12.661 8.086-19.78 10.365-7.797 2.498-15.565 2.118-23.633 2.118H96.695v-35.628h35.77c5.603 0 11.22.1 16.822-.034 12.218-.294 22.257-.982 32.165-11.536"/>
        <g transform="translate(92 291)">
            <mask id="h" fill="#fff">
                <use xlink:href="#g"/>
            </mask>
            <path fill="#C0E7FF" d="M-4.115 46.144h131.317V-4.959H-4.115z" mask="url(#h)"/>
        </g>
        <path fill="#C0E7FF" d="M190.834 263.372h33.089v-42.569h-33.089z"/>
        <g transform="translate(237 192)">
            <mask id="j" fill="#fff">
                <use xlink:href="#i"/>
            </mask>
            <path fill="#D9F1FF" d="M-4.56 130.424h126.886V-4.442H-4.56z" mask="url(#j)"/>
        </g>
        <path stroke="#70C2ED" stroke-linecap="round" stroke-linejoin="round" stroke-width="3" d="M237.44 290.24c11.636 16.441 30.855 27.184 52.596 27.184 35.507 0 64.29-28.652 64.29-63.994v-9.13.9-52.643h-33.164v59.84c0 17.936-14.609 32.476-32.628 32.476-10.03 0-19.004-4.505-24.99-11.594"/>
        <g transform="translate(235 190)">
            <mask id="l" fill="#fff">
                <use xlink:href="#k"/>
            </mask>
            <path fill="#C0E7FF" d="M-4.453 133.441h130.434V-4.92H-4.453z" mask="url(#l)"/>
        </g>
        <path stroke="#70C2ED" stroke-linecap="round" stroke-linejoin="round" stroke-width="3" d="M416.378 303.67h13.392v-33.19h-13.392z"/>
        <path stroke="#001929" stroke-linecap="round" stroke-linejoin="round" stroke-width="3" d="M416.378 269.376v35.532"/>
        <g transform="translate(152 153)">
            <mask id="n" fill="#fff">
                <use xlink:href="#m"/>
            </mask>
            <path fill="#FFF" d="M-4.84 145.719h138.58V-4.918H-4.84z" mask="url(#n)"/>
        </g>
        <g transform="translate(331 297)">
            <mask id="p" fill="#fff">
                <use xlink:href="#o"/>
            </mask>
            <path fill="#D9F1FF" d="M-4.693 13.053h94.418V-4.084H-4.693z" mask="url(#p)"/>
        </g>
        <g transform="translate(149 150)">
            <mask id="r" fill="#fff">
                <use xlink:href="#q"/>
            </mask>
            <path fill="#D9F1FF" d="M-4.521 149.918h142.933V-4.657H-4.521z" mask="url(#r)"/>
        </g>
        <g stroke-linecap="round" stroke-linejoin="round" stroke-width="3">
            <path stroke="#005489" d="M238.093 290.24c11.636 16.441 30.854 27.184 52.596 27.184 35.506 0 64.289-28.652 64.289-63.994v-9.13.9-52.643h-33.164v59.84c0 17.936-14.608 32.476-32.628 32.476a32.616 32.616 0 0 1-24.99-11.594M329.547 305.158h86.83M214.855 293.719c-6.19 9.556-14.361 17.864-23.688 24.41-5.99 4.204-12.662 8.086-19.78 10.365-7.797 2.498-15.565 2.118-23.634 2.118H96.695v-35.628"/>
            <path stroke="#0077C4" d="M149.869 110.885s-2.946 14.948 6.323 21.528v7.295"/>
            <path stroke="#70C2ED" d="M172.43 80.202s10.612 9.68 10.97 14.4c.36 4.72 2.396 18.858 2.396 18.858s-3.664 14.519-3.736 16.664c-.072 2.147 0 9.585 0 9.585"/>
            <path stroke="#005489" d="M173.016 127.633s-8.335-4.577-8.407-19.454"/>
            <path stroke="#0077C4" d="M126.202 75.867h46.23"/>
        </g>
        <path fill="#FFF" d="M126.455 106.398h45.724V77.083h-45.724z"/>
        <path stroke="#001929" stroke-linecap="round" stroke-linejoin="round" stroke-width="3" d="M172.43 75.867v27.652M130.72 89.111h15.78"/>
        <path stroke="#005489" stroke-linecap="round" stroke-linejoin="round" stroke-width="3" d="M130.72 93.58h7.546"/>
        <path stroke="#363744" stroke-linecap="round" stroke-linejoin="round" stroke-width="3" d="M153.812 140.286h30.171"/>
        <g transform="translate(276 253)">
            <mask id="t" fill="#fff">
                <use xlink:href="#s"/>
            </mask>
            <path fill="#D9F1FF" d="M-4.169 35.383h28.703V-4.833H-4.169z" mask="url(#t)"/>
        </g>
        <g stroke-linecap="round" stroke-linejoin="round" stroke-width="3">
            <path stroke="#005489" d="M294.824 283.875a46.827 46.827 0 0 1-8.058-7.501c-5.639-6.65-9.292-13.605-10.448-22.887"/>
            <path stroke="#70C2ED" d="M280.74 221.837v7.889c0 35.342-28.784 63.993-64.29 63.993-35.507 0-64.29-28.651-64.29-63.993v.71-77.354h33.164v76.144c0 18.39 14.978 33.299 33.454 33.299 18.477 0 33.455-14.908 33.455-33.3l-.098-7.605"/>
            <path stroke="#005489" d="M12.741 333.607v-1.02c0-1.557-1.524-2.822-3.4-2.822h-1.23v-12.787h1.23c1.876 0 3.4-1.267 3.4-2.822v-1.02h43.224v1.02c0 1.555 1.524 2.822 3.401 2.822h1.23v12.787h-1.23c-1.877 0-3.4 1.265-3.4 2.822v1.02H12.74z"/>
        </g>
        <g transform="translate(126 77)">
            <mask id="v" fill="#fff">
                <use xlink:href="#u"/>
            </mask>
            <path fill="#D9F1FF" d="M-4.63 33.757h43.902V-4.918H-4.63z" mask="url(#v)"/>
        </g>
        <path stroke="#0077C4" stroke-linecap="round" stroke-linejoin="round" stroke-width="3" d="M126.202 83.814h46.23"/>
        <path stroke="#70C2ED" stroke-linecap="round" stroke-linejoin="round" stroke-width="3" d="M126.202 75.867v30.37"/>
        <path stroke="#005489" stroke-linecap="round" stroke-linejoin="round" stroke-width="3" d="M126.202 106.236h36.351"/>
        <g transform="translate(152 88)">
            <mask id="x" fill="#fff">
                <use xlink:href="#w"/>
            </mask>
            <path fill="#EDF9FE" d="M-4.665 25.179h31.532V-4.187H-4.665z" mask="url(#x)"/>
        </g>
        <g stroke-width="3">
            <path stroke="#001929" stroke-linecap="round" stroke-linejoin="round" d="M164.598 108.18l-11.196-12.126a4.039 4.039 0 0 1 .24-5.71l.515-.47a4.086 4.086 0 0 1 5.736.24l13.253 14.353.722.781"/>
            <path stroke="#1D3D50" d="M466.325 238.867l-3.159-6.2s-1.174-4.582 3.16-6.289H478.6c4.333 1.707 3.16 6.29 3.16 6.29l-3.16 6.2"/>
            <path stroke="#005587" stroke-linecap="round" d="M472.463 226.378h6.139c4.333 1.707 3.159 6.29 3.159 6.29l-3.16 6.199"/>
            <path stroke="#0677BE" d="M473.922 238.867h-7.251c-1.781 0-13.866 11.522-18 27.604-4.135 16.082 8.077 15.511 8.077 15.511h17.174-2.918 17.174s12.213.571 8.078-15.51c-4.134-16.083-16.22-27.605-18-27.605h-7.252"/>
            <path stroke="#73C0EB" stroke-linecap="round" d="M466.67 238.867c-1.78 0-13.865 11.522-18 27.604-4.134 16.082 8.078 15.511 8.078 15.511h17.174-2.918 17.174"/>
        </g>
        <g transform="translate(487 281)">
            <mask id="z" fill="#fff">
                <use xlink:href="#y"/>
            </mask>
            <path fill="#333" d="M-4.145 6.958H7.811V-4.988H-4.145z" mask="url(#z)"/>
        </g>
        <g stroke="#0477BE" stroke-linecap="round" stroke-width="2.5">
            <path d="M472.15 261.423c-3.028-.464-5.873-2.08-5.873-4.856 0-2.683 2.63-4.857 5.873-4.857 3.243 0 5.872 2.174 5.872 4.857M472.15 261.423c3.027.463 5.872 2.078 5.872 4.856 0 2.682-2.629 4.857-5.872 4.857-3.244 0-5.873-2.175-5.873-4.857"/>
        </g>
        <path fill="#1D3D50" d="M472.15 273.457v-23.845 23.845z"/>
        <path stroke="#73C0EB" stroke-linecap="round" stroke-width="2.5" d="M472.15 249.611v23.846"/>
        <path stroke="#005586" stroke-linecap="round" stroke-width="2.5" d="M472.15 261.423c-3.028-.464-5.873-2.08-5.873-4.856 0-2.683 2.63-4.857 5.873-4.857 3.243 0 5.872 2.174 5.872 4.857"/>
        <g transform="translate(471 260)">
            <mask id="B" fill="#fff">
                <use xlink:href="#A"/>
            </mask>
            <path fill="#333" d="M-4.828 7.396H7.128V-4.551H-4.828z" mask="url(#B)"/>
        </g>
        <g transform="translate(429 274)">
            <mask id="D" fill="#fff">
                <use xlink:href="#C"/>
            </mask>
            <path fill="#FFF" d="M-4.045 15.016h46.729V-4.725H-4.045z" mask="url(#D)"/>
        </g>
        <path stroke="#70C2ED" stroke-linecap="round" stroke-width="3" d="M429.955 279.847s9.964-5.86 12.544-5.562c2.58.3 24.504 2.394 24.182 6.283-.324 3.888-4.522 3.633-9.036 3.236-4.514-.397-10.962-1.295-10.962-1.295"/>
        <g transform="translate(462 281)">
            <mask id="F" fill="#fff">
                <use xlink:href="#E"/>
            </mask>
            <path fill="#FFF" d="M-4.88 15.782h37.708V-4.993H-4.88z" mask="url(#F)"/>
        </g>
        <path stroke="#0077C4" stroke-linecap="round" stroke-width="3" d="M462.12 284.017c4.495.6 8.884-.358 13.304-1.062 2.817-.45 14.404-4.628 14.404.849.001 3.366-2.91 3.964-5.595 4.672-7.339 1.936-14.536 2.968-22.113 3.307"/>
        <g transform="translate(21 339)">
            <mask id="H" fill="#fff">
                <use xlink:href="#G"/>
            </mask>
            <path fill="#FFF" d="M-4.197 10.728h16.926V-4.359H-4.197z" mask="url(#H)"/>
        </g>
        <g stroke-linecap="round" stroke-linejoin="round" stroke-width="3">
            <path stroke="#70C2ED" d="M22.704 339.642l-.53.916a2.773 2.773 0 0 0 1.018 3.785l.03.017a2.801 2.801 0 0 0 3.802-1.015l1.334-2.3c.256-.442.375-.925.37-1.404M363.458 123.293l.92-.528a2.8 2.8 0 0 1 3.803 1.014l.016.03a2.771 2.771 0 0 1-1.018 3.784l-2.311 1.327a2.769 2.769 0 0 1-1.41.37M349.44 180.193v-4.509l7.96-7.924"/>
            <path stroke="#0077C4" d="M335.151 104.37h24.574a3.724 3.724 0 0 1 3.733 3.715v55.96a3.724 3.724 0 0 1-3.733 3.716h-24.574a3.722 3.722 0 0 1-3.73-3.715v-55.961a3.723 3.723 0 0 1 3.73-3.715z"/>
        </g>
        <path fill="#FFF" d="M335.958 158.49h23.255v-45.6h-23.255z"/>
        <path stroke="#70C2ED" stroke-linecap="round" stroke-linejoin="round" stroke-width="3" d="M335.958 158.49h23.255v-45.601h-23.255z"/>
        <g stroke="#001929" stroke-linecap="round" stroke-linejoin="round" stroke-width="3">
            <path d="M349.8 185.497a2.21 2.21 0 0 1-2.215 2.206 2.21 2.21 0 0 1-2.215-2.206 2.21 2.21 0 0 1 2.215-2.205 2.21 2.21 0 0 1 2.216 2.205zM180.628 145.94a2.21 2.21 0 0 1-2.216 2.205 2.21 2.21 0 0 1-2.215-2.205 2.21 2.21 0 0 1 2.215-2.206c1.224 0 2.216.988 2.216 2.206zM427.47 277.642a2.21 2.21 0 0 1-2.216 2.205 2.21 2.21 0 0 1-2.216-2.205c0-1.218.993-2.206 2.216-2.206 1.224 0 2.216.988 2.216 2.206zM91.24 323.009a2.21 2.21 0 0 1-2.214 2.205 2.21 2.21 0 0 1-2.216-2.205 2.21 2.21 0 0 1 2.216-2.205 2.21 2.21 0 0 1 2.215 2.205z"/>
        </g>
        <g transform="translate(359 149)">
            <mask id="J" fill="#fff">
                <use xlink:href="#I"/>
            </mask>
            <path fill="#FFF" d="M-4.552 11.494h18.234V-4.081H-4.552z" mask="url(#J)"/>
        </g>
        <path stroke="#0077C4" stroke-linecap="round" stroke-linejoin="round" stroke-width="3" d="M361.651 149.919h3.828c1.212 0 2.203.987 2.203 2.194v1.187a2.205 2.205 0 0 1-2.203 2.194h-3.828a2.205 2.205 0 0 1-2.203-2.194v-1.187c0-1.207.991-2.194 2.203-2.194z"/>
        <g transform="translate(360 131)">
            <mask id="L" fill="#fff">
                <use xlink:href="#K"/>
            </mask>
            <path fill="#FFF" d="M-4.915 12.007h18.393v-16.28H-4.915z" mask="url(#L)"/>
        </g>
        <path stroke="#0077C4" stroke-linecap="round" stroke-linejoin="round" stroke-width="3" d="M361.868 132.494l3.757-.728a2.21 2.21 0 0 1 2.584 1.735l.227 1.167a2.2 2.2 0 0 1-1.742 2.572l-3.757.727a2.21 2.21 0 0 1-2.584-1.735l-.227-1.166a2.2 2.2 0 0 1 1.742-2.572z"/>
        <g transform="translate(359 140)">
            <mask id="N" fill="#fff">
                <use xlink:href="#M"/>
            </mask>
            <path fill="#FFF" d="M-4.63 11.624h18.392v-16.28H-4.63z" mask="url(#N)"/>
        </g>
        <path stroke="#005489" stroke-linecap="round" stroke-linejoin="round" stroke-width="3" d="M361.152 141.111l3.758-.728a2.211 2.211 0 0 1 2.584 1.735l.227 1.167a2.2 2.2 0 0 1-1.742 2.572l-3.758.727a2.21 2.21 0 0 1-2.584-1.735l-.227-1.166a2.2 2.2 0 0 1 1.742-2.572z"/>
        <g transform="translate(324 141)">
            <mask id="P" fill="#fff">
                <use xlink:href="#O"/>
            </mask>
            <path fill="#FFF" d="M-4.953 44.193h28.322V-4.744H-4.953z" mask="url(#P)"/>
        </g>
        <g>
            <path stroke="#005489" stroke-linecap="round" stroke-linejoin="round" stroke-width="3" d="M324.047 180.193v-28.826l5.49-10.11h12.627s2.038 6.967-6.735 6.967l-2.221-.136-1.612 5.874s7.168 3.416 6.946 13.935c-.055 2.63-.276 4.713-.58 6.36l-13.915 5.936z"/>
            <mask id="R" fill="#fff">
                <use xlink:href="#Q"/>
            </mask>
            <path stroke="#005489" stroke-linecap="round" stroke-linejoin="round" stroke-width="3" d="M153.831 152.611h29.822v-11.953h-29.822z" mask="url(#R)"/>
            <path stroke="#0077C4" stroke-linecap="round" stroke-linejoin="round" stroke-width="3" d="M322.466 192.146h29.822v-11.953h-29.822z" mask="url(#R)"/>
            <path stroke="#001929" stroke-linecap="round" stroke-linejoin="round" stroke-width="3" d="M83.253 327.277h-3.98l-10.702 10.496h-3.147" mask="url(#R)"/>
            <path stroke="#005489" stroke-linecap="round" stroke-linejoin="round" stroke-width="3" d="M34.139 318.162c2.89 0 5.234 2.332 5.234 5.21 0 2.877-2.343 5.21-5.234 5.21s-5.234-2.333-5.234-5.21c0-2.878 2.343-5.21 5.234-5.21z" mask="url(#R)"/>
            <path stroke="#001929" stroke-linecap="round" stroke-linejoin="round" stroke-width="3" d="M15.62 323.01h6.835" mask="url(#R)"/>
            <path stroke="#0077C4" stroke-linecap="round" stroke-linejoin="round" stroke-width="3" d="M43.97 323.01h7.023" mask="url(#R)"/>
        </g>
        <g transform="translate(49 335)">
            <mask id="T" fill="#fff">
                <use xlink:href="#S"/>
            </mask>
            <path fill="#FFF" d="M-4.547 13.848h15.601V-4.349H-4.547z" mask="url(#T)"/>
        </g>
        <path stroke="#001929" stroke-linecap="round" stroke-linejoin="round" stroke-width="3" d="M49.453 337.844v3.81c0 1.207.992 2.194 2.204 2.194h1.193a2.205 2.205 0 0 0 2.204-2.194v-3.81a2.205 2.205 0 0 0-2.204-2.193h-1.193a2.205 2.205 0 0 0-2.204 2.193z"/>
        <g transform="translate(31 336)">
            <mask id="V" fill="#fff">
                <use xlink:href="#U"/>
            </mask>
            <path fill="#FFF" d="M-4.824 13.638h16.31V-4.716h-16.31z" mask="url(#V)"/>
        </g>
        <path stroke="#70C2ED" stroke-linecap="round" stroke-linejoin="round" stroke-width="3" d="M31.947 338.059l-.73 3.74a2.199 2.199 0 0 0 1.742 2.572l1.172.227a2.21 2.21 0 0 0 2.584-1.734l.73-3.741a2.2 2.2 0 0 0-1.742-2.571l-1.172-.226a2.207 2.207 0 0 0-2.584 1.733z"/>
        <g transform="translate(31 341)">
            <mask id="X" fill="#fff">
                <use xlink:href="#W"/>
            </mask>
            <path fill="#FFF" d="M-4.824 8.536h15.538V-4.303H-4.824z" mask="url(#X)"/>
        </g>
        <path stroke="#0077C4" stroke-linecap="round" stroke-linejoin="round" stroke-width="3" d="M31.217 341.697a2.2 2.2 0 0 0 1.742 2.572l1.172.227a2.21 2.21 0 0 0 2.584-1.735"/>
        <g transform="translate(39 335)">
            <mask id="Z" fill="#fff">
                <use xlink:href="#Y"/>
            </mask>
            <path fill="#FFF" d="M-4.167 13.926h16.31V-4.428h-16.31z" mask="url(#Z)"/>
        </g>
        <path stroke="#0077C4" stroke-linecap="round" stroke-linejoin="round" stroke-width="3" d="M40.605 337.347l-.731 3.74a2.2 2.2 0 0 0 1.742 2.572l1.172.226a2.21 2.21 0 0 0 2.585-1.733l.73-3.741a2.202 2.202 0 0 0-1.742-2.572l-1.172-.226a2.208 2.208 0 0 0-2.584 1.734z"/>
        <g transform="translate(39 335)">
            <mask id="ab" fill="#fff">
                <use xlink:href="#aa"/>
            </mask>
            <path fill="#FFF" d="M-4.126 10.6h16.269V-4.915H-4.126z" mask="url(#ab)"/>
        </g>
        <g stroke-linecap="round" stroke-linejoin="round" stroke-width="3">
            <path stroke="#005489" d="M46.102 337.924a2.2 2.2 0 0 0-1.741-2.571l-1.172-.227a2.21 2.21 0 0 0-2.584 1.735l-.731 3.739"/>
            <path stroke="#001929" d="M344.651 109.129h5.868"/>
        </g>
        <g transform="translate(39 298)">
            <mask id="ad" fill="#fff">
                <use xlink:href="#ac"/>
            </mask>
            <path fill="#FFF" d="M-4.229 24.593h53.482V-4.861H-4.229z" mask="url(#ad)"/>
        </g>
        <g transform="translate(0 10)">
            <path stroke="#005489" stroke-linecap="round" stroke-linejoin="round" stroke-width="3" d="M83.253 288.139v12.085s-1.903 3.07-13.176 3.307c-11.274.235-14.934-7.376-14.934-7.376l-6.296 1.712.147 2.357c0 9.315-9.223 7.15-9.223 7.15v-13.406l12.59-5.83h30.892z"/>
            <path stroke="#0077C4" stroke-linecap="round" stroke-linejoin="round" stroke-width="3" d="M39.607 307.407s9.223 2.163 9.223-7.152l-.146-2.358 6.296-1.712s3.66 7.612 14.933 7.376c11.274-.235 13.176-3.306 13.176-3.306"/>
            <mask id="af" fill="#fff">
                <use xlink:href="#ae"/>
            </mask>
            <path stroke="#0077C4" stroke-linecap="round" stroke-linejoin="round" stroke-width="3" d="M83.63 319.409h13.392v-33.19H83.63z" mask="url(#af)"/>
        </g>
    </g>
</svg>
