<svg xmlns="http://www.w3.org/2000/svg" xmlns:xlink="http://www.w3.org/1999/xlink" width="81" height="88" viewBox="0 0 81 88">
    <defs>
        <path id="a" d="M9.125 9.971h57.79v68.465s-25.213 0-37.017-.812c-11.804-.812-28.051-1.946-28.051-1.946-1.102-.077-1.515-.9-.95-1.854 0 0 5.712-8.317 6.952-21.144C9.09 39.854 9.125 9.971 9.125 9.971z"/>
        <path id="b" d="M14.833 3.941C14.442 1.765 15.916 0 18.118 0h40.31c2.205 0 3.675 1.767 3.285 3.941L60.11 12.87c-.39 2.177-2.497 3.942-4.702 3.942h-34.27c-2.206 0-4.312-1.768-4.702-3.942l-1.603-8.928z"/>
        <path id="c" d="M67.864 47.39c6.293-.736 12.314-.944 12.314-.944l.598 11.4s-6.15.385-11.946 1.108c-5.798.723-11.952.627-11.952.627l-6.737-5.454 6.13-6.128s5.3.129 11.593-.608z"/>
    </defs>
    <g fill="none" fill-rule="evenodd">
        <rect width="65.957" height="80.261" x="5.5" y="5.5" stroke="#005587" stroke-width="3" rx="2"/>
        <use fill="#F5F6F7" xlink:href="#a"/>
        <path stroke="#001928" stroke-width="3" d="M2.187 74.587zm.245-.372l1.215.085a42723.16 42723.16 0 0 0 18.1 1.258l.24.016 8.014.554c3.713.255 9.003.447 15.456.583 4.693.098 9.722.162 14.753.197a1220.488 1220.488 0 0 0 5.205.026V11.47H10.62l-.002.589c-.009 1.658-.022 3.506-.042 5.495a972.709 972.709 0 0 1-.296 16.68c-.217 7.931-.524 14.309-.938 18.59a53.106 53.106 0 0 1-3.456 14.37 47.467 47.467 0 0 1-2.552 5.474 31.998 31.998 0 0 1-.902 1.546z"/>
        <use fill="#F5F6F7" xlink:href="#b"/>
        <path stroke="#73C3EB" stroke-width="3" d="M16.31 3.676l1.602 8.928c.263 1.461 1.748 2.707 3.226 2.707h34.27c1.479 0 2.963-1.244 3.226-2.707l1.603-8.928c.225-1.256-.541-2.176-1.81-2.176H18.118c-1.268 0-2.035.92-1.809 2.176z"/>
        <path stroke="#005587" stroke-linecap="round" stroke-width="3" d="M18.027 61.607s15.2 1.135 21.843 1.135h16.565"/>
        <path stroke="#73C3EB" stroke-linecap="round" stroke-width="3" d="M19.938 32.5h37.385"/>
        <path stroke="#0079C1" stroke-linecap="round" stroke-width="3" d="M19.938 24.5h37.385M65 11.5v35.032"/>
        <path stroke="#005587" stroke-linecap="round" stroke-width="3" d="M20 15.5h34.5"/>
        <path stroke="#0079C1" stroke-linecap="round" stroke-width="3" d="M23 1.5h36.51c.554 0 .926.435.828.986l-1.526 8.563"/>
        <path fill="#221F20" d="M60.316 10.56a1.378 1.378 0 1 1-2.756 0 1.378 1.378 0 0 1 2.756 0"/>
        <path stroke="#001928" stroke-linecap="round" stroke-width="3" d="M72 5.497v41.035"/>
        <path stroke="#73C3EB" stroke-linecap="round" stroke-width="3" d="M5 5.497V64.5"/>
        <g>
            <use fill="#F5F6F7" xlink:href="#c"/>
            <path stroke="#0079C1" stroke-width="3" d="M56.885 49.506L52.38 54.01l5.034 4.075c.963.003 2.181-.011 3.567-.056a89.243 89.243 0 0 0 6.73-.454c.316-.035.627-.071.933-.11l.953-.115c2.427-.286 5.024-.535 7.62-.746.703-.057 1.368-.108 1.984-.153l-.443-8.441c-.702.035-1.467.078-2.283.129-2.84.179-5.713.423-8.437.742-2.482.29-4.982.47-7.413.56a87.156 87.156 0 0 1-3.74.065z"/>
        </g>
        <path stroke="#005587" stroke-width="3" d="M65.098 57.813l-8.9-7.367-3.783 3.591 5 4.048c.962.003 2.18-.011 3.566-.056a98.966 98.966 0 0 0 4.117-.216z"/>
    </g>
</svg>
